<mxfile host="app.diagrams.net" modified="2023-11-23T08:17:35.866Z" agent="Mozilla/5.0 (Windows NT 10.0; Win64; x64) AppleWebKit/537.36 (KHTML, like Gecko) Chrome/119.0.0.0 Safari/537.36" etag="1Nfa9HmhiXtxW-heexNE" version="22.1.3" type="device">
  <diagram name="Page-1" id="PMlyHPwSAhGqZ5ARpqnZ">
    <mxGraphModel dx="1050" dy="566" grid="1" gridSize="10" guides="1" tooltips="1" connect="1" arrows="1" fold="1" page="1" pageScale="1" pageWidth="850" pageHeight="1100" math="0" shadow="0">
      <root>
        <mxCell id="0" />
        <mxCell id="1" parent="0" />
        <mxCell id="cwkuZS0ToTQowp77Zn1Q-13" style="edgeStyle=orthogonalEdgeStyle;rounded=0;orthogonalLoop=1;jettySize=auto;html=1;endArrow=diamondThin;endFill=0;" parent="1" source="cwkuZS0ToTQowp77Zn1Q-1" target="cwkuZS0ToTQowp77Zn1Q-14" edge="1">
          <mxGeometry relative="1" as="geometry">
            <mxPoint x="420" y="490" as="targetPoint" />
          </mxGeometry>
        </mxCell>
        <mxCell id="cwkuZS0ToTQowp77Zn1Q-1" value="Map" style="swimlane;fontStyle=1;align=center;verticalAlign=top;childLayout=stackLayout;horizontal=1;startSize=26;horizontalStack=0;resizeParent=1;resizeParentMax=0;resizeLast=0;collapsible=1;marginBottom=0;whiteSpace=wrap;html=1;" parent="1" vertex="1">
          <mxGeometry x="340" y="250" width="160" height="138" as="geometry" />
        </mxCell>
        <mxCell id="cwkuZS0ToTQowp77Zn1Q-2" value="- locations: List&amp;lt;Location&amp;gt;" style="text;strokeColor=none;fillColor=none;align=left;verticalAlign=top;spacingLeft=4;spacingRight=4;overflow=hidden;rotatable=0;points=[[0,0.5],[1,0.5]];portConstraint=eastwest;whiteSpace=wrap;html=1;" parent="cwkuZS0ToTQowp77Zn1Q-1" vertex="1">
          <mxGeometry y="26" width="160" height="24" as="geometry" />
        </mxCell>
        <mxCell id="cwkuZS0ToTQowp77Zn1Q-3" value="" style="line;strokeWidth=1;fillColor=none;align=left;verticalAlign=middle;spacingTop=-1;spacingLeft=3;spacingRight=3;rotatable=0;labelPosition=right;points=[];portConstraint=eastwest;strokeColor=inherit;" parent="cwkuZS0ToTQowp77Zn1Q-1" vertex="1">
          <mxGeometry y="50" width="160" height="8" as="geometry" />
        </mxCell>
        <mxCell id="cwkuZS0ToTQowp77Zn1Q-4" value="+ Map()&lt;br&gt;+ AddLocation void&lt;br&gt;+ Locate&amp;nbsp; (GameObject)&lt;br&gt;+ Name&amp;nbsp; &amp;lt;Property&amp;gt;" style="text;strokeColor=none;fillColor=none;align=left;verticalAlign=top;spacingLeft=4;spacingRight=4;overflow=hidden;rotatable=0;points=[[0,0.5],[1,0.5]];portConstraint=eastwest;whiteSpace=wrap;html=1;" parent="cwkuZS0ToTQowp77Zn1Q-1" vertex="1">
          <mxGeometry y="58" width="160" height="80" as="geometry" />
        </mxCell>
        <mxCell id="cwkuZS0ToTQowp77Zn1Q-5" value="PutCommand" style="swimlane;fontStyle=1;align=center;verticalAlign=top;childLayout=stackLayout;horizontal=1;startSize=26;horizontalStack=0;resizeParent=1;resizeParentMax=0;resizeLast=0;collapsible=1;marginBottom=0;whiteSpace=wrap;html=1;" parent="1" vertex="1">
          <mxGeometry x="600" y="238" width="160" height="150" as="geometry" />
        </mxCell>
        <mxCell id="cwkuZS0ToTQowp77Zn1Q-7" value="" style="line;strokeWidth=1;fillColor=none;align=left;verticalAlign=middle;spacingTop=-1;spacingLeft=3;spacingRight=3;rotatable=0;labelPosition=right;points=[];portConstraint=eastwest;strokeColor=inherit;" parent="cwkuZS0ToTQowp77Zn1Q-5" vertex="1">
          <mxGeometry y="26" width="160" height="8" as="geometry" />
        </mxCell>
        <mxCell id="cwkuZS0ToTQowp77Zn1Q-8" value="+ PutCommand()&lt;br&gt;+ Execute (Player p, string[] text) string&amp;nbsp;&lt;br&gt;+ PutAt(Item item, Location location) string&lt;br&gt;+ Fetch (Player player, string itemid) Location" style="text;strokeColor=none;fillColor=none;align=left;verticalAlign=top;spacingLeft=4;spacingRight=4;overflow=hidden;rotatable=0;points=[[0,0.5],[1,0.5]];portConstraint=eastwest;whiteSpace=wrap;html=1;" parent="cwkuZS0ToTQowp77Zn1Q-5" vertex="1">
          <mxGeometry y="34" width="160" height="116" as="geometry" />
        </mxCell>
        <mxCell id="cwkuZS0ToTQowp77Zn1Q-9" value="IHaveInventory" style="html=1;whiteSpace=wrap;" parent="1" vertex="1">
          <mxGeometry x="340" y="130" width="110" height="50" as="geometry" />
        </mxCell>
        <mxCell id="cwkuZS0ToTQowp77Zn1Q-11" style="edgeStyle=orthogonalEdgeStyle;rounded=0;orthogonalLoop=1;jettySize=auto;html=1;entryX=0.342;entryY=-0.017;entryDx=0;entryDy=0;entryPerimeter=0;endArrow=block;endFill=0;" parent="1" source="cwkuZS0ToTQowp77Zn1Q-9" target="cwkuZS0ToTQowp77Zn1Q-1" edge="1">
          <mxGeometry relative="1" as="geometry" />
        </mxCell>
        <mxCell id="cwkuZS0ToTQowp77Zn1Q-14" value="Player" style="html=1;whiteSpace=wrap;" parent="1" vertex="1">
          <mxGeometry x="365" y="465" width="110" height="50" as="geometry" />
        </mxCell>
        <mxCell id="cwkuZS0ToTQowp77Zn1Q-15" value="CommandProcessor" style="swimlane;fontStyle=1;align=center;verticalAlign=top;childLayout=stackLayout;horizontal=1;startSize=26;horizontalStack=0;resizeParent=1;resizeParentMax=0;resizeLast=0;collapsible=1;marginBottom=0;whiteSpace=wrap;html=1;" parent="1" vertex="1">
          <mxGeometry x="50" y="350" width="210" height="110" as="geometry" />
        </mxCell>
        <mxCell id="cwkuZS0ToTQowp77Zn1Q-16" value="- commands List&amp;lt;Command&amp;gt;" style="text;strokeColor=none;fillColor=none;align=left;verticalAlign=top;spacingLeft=4;spacingRight=4;overflow=hidden;rotatable=0;points=[[0,0.5],[1,0.5]];portConstraint=eastwest;whiteSpace=wrap;html=1;" parent="cwkuZS0ToTQowp77Zn1Q-15" vertex="1">
          <mxGeometry y="26" width="210" height="26" as="geometry" />
        </mxCell>
        <mxCell id="cwkuZS0ToTQowp77Zn1Q-17" value="" style="line;strokeWidth=1;fillColor=none;align=left;verticalAlign=middle;spacingTop=-1;spacingLeft=3;spacingRight=3;rotatable=0;labelPosition=right;points=[];portConstraint=eastwest;strokeColor=inherit;" parent="cwkuZS0ToTQowp77Zn1Q-15" vertex="1">
          <mxGeometry y="52" width="210" height="8" as="geometry" />
        </mxCell>
        <mxCell id="cwkuZS0ToTQowp77Zn1Q-18" value="+ CommandProcessor ()&lt;br&gt;+ Execute (Player p, string[] text)" style="text;strokeColor=none;fillColor=none;align=left;verticalAlign=top;spacingLeft=4;spacingRight=4;overflow=hidden;rotatable=0;points=[[0,0.5],[1,0.5]];portConstraint=eastwest;whiteSpace=wrap;html=1;" parent="cwkuZS0ToTQowp77Zn1Q-15" vertex="1">
          <mxGeometry y="60" width="210" height="50" as="geometry" />
        </mxCell>
        <mxCell id="cwkuZS0ToTQowp77Zn1Q-20" style="edgeStyle=orthogonalEdgeStyle;rounded=0;orthogonalLoop=1;jettySize=auto;html=1;entryX=0.25;entryY=0;entryDx=0;entryDy=0;endArrow=block;endFill=0;" parent="1" source="cwkuZS0ToTQowp77Zn1Q-19" target="cwkuZS0ToTQowp77Zn1Q-15" edge="1">
          <mxGeometry relative="1" as="geometry" />
        </mxCell>
        <mxCell id="fYmo2bVYsG5q09Faj1M1-1" style="edgeStyle=orthogonalEdgeStyle;rounded=0;orthogonalLoop=1;jettySize=auto;html=1;" edge="1" parent="1" source="cwkuZS0ToTQowp77Zn1Q-19">
          <mxGeometry relative="1" as="geometry">
            <mxPoint x="660" y="230" as="targetPoint" />
          </mxGeometry>
        </mxCell>
        <mxCell id="cwkuZS0ToTQowp77Zn1Q-19" value="Command" style="html=1;whiteSpace=wrap;" parent="1" vertex="1">
          <mxGeometry x="70" y="50" width="110" height="50" as="geometry" />
        </mxCell>
      </root>
    </mxGraphModel>
  </diagram>
</mxfile>
